<svg width="89" height="88" viewBox="0 0 89 88" fill="none" xmlns="http://www.w3.org/2000/svg">
<path d="M66.3994 0C78.7706 0 88.7998 10.0292 88.7998 22.4004C88.7996 32.7119 81.8315 41.3943 72.3477 44C81.8317 46.6057 88.7998 55.2889 88.7998 65.6006C88.7996 77.9716 78.7705 88 66.3994 88C56.0878 87.9999 47.4054 81.0319 44.7998 71.5479C42.1942 81.0319 33.5118 87.9999 23.2002 88C10.8291 88 0.800016 77.9716 0.799805 65.6006C0.799805 55.2893 7.76746 46.606 17.251 44C7.76737 41.3941 0.799981 32.7117 0.799805 22.4004C0.799805 10.0293 10.8282 0.000159784 23.1992 0C33.5106 0 42.1939 6.96754 44.7998 16.4512C47.4058 6.96769 56.0882 0.000133179 66.3994 0Z" fill="#FC5223"/>
</svg>
