<svg width="18" height="18" viewBox="0 0 18 18" fill="none" xmlns="http://www.w3.org/2000/svg">
<path d="M14.3998 10.2646C15.3503 10.9748 16.1998 12.7629 16.1998 13.8646C16.1998 14.2078 15.9494 14.4861 15.6405 14.4861H15.2998M11.6998 7.35372C12.3147 6.99804 12.7284 6.33322 12.7284 5.57179C12.7284 4.81036 12.3147 4.14555 11.6998 3.78986M2.35913 14.4861H12.2119C12.5208 14.4861 12.7712 14.2078 12.7712 13.8646C12.7712 11.7071 10.9688 9.95819 7.28552 9.95819C3.60225 9.95819 1.7998 11.7071 1.7998 13.8646C1.7998 14.2078 2.05022 14.4861 2.35913 14.4861ZM9.34266 5.57179C9.34266 6.70792 8.42165 7.62893 7.28552 7.62893C6.14939 7.62893 5.22838 6.70792 5.22838 5.57179C5.22838 4.43566 6.14939 3.51465 7.28552 3.51465C8.42165 3.51465 9.34266 4.43566 9.34266 5.57179Z" stroke="black" stroke-width="1.6" stroke-linecap="round"/>
</svg>
