<svg width="24" height="24" viewBox="0 0 24 24" fill="none" xmlns="http://www.w3.org/2000/svg">
<path d="M20.52 15.2105L18.72 13.4005V8.94047C18.7439 7.2843 18.1678 5.67538 17.0981 4.41081C16.0283 3.14624 14.5372 2.31141 12.9 2.06047C11.9498 1.93534 10.9838 2.01429 10.0666 2.29205C9.1493 2.56981 8.30182 3.04 7.58068 3.67124C6.85953 4.30247 6.2813 5.08025 5.88456 5.95267C5.48782 6.82509 5.2817 7.77208 5.27995 8.73047V13.4005L3.47995 15.2105C3.25386 15.4403 3.10053 15.7317 3.03915 16.0483C2.97777 16.3648 3.01105 16.6924 3.13483 16.9901C3.25861 17.2878 3.4674 17.5425 3.7351 17.7222C4.0028 17.9019 4.31753 17.9987 4.63995 18.0005H7.99995V18.3405C8.04666 19.3557 8.4939 20.311 9.24368 20.997C9.99345 21.683 10.9846 22.0439 12 22.0005C13.0153 22.0439 14.0065 21.683 14.7562 20.997C15.506 20.311 15.9532 19.3557 16 18.3405V18.0005H19.36C19.6824 17.9987 19.9971 17.9019 20.2648 17.7222C20.5325 17.5425 20.7413 17.2878 20.8651 16.9901C20.9889 16.6924 21.0221 16.3648 20.9608 16.0483C20.8994 15.7317 20.746 15.4403 20.52 15.2105ZM14 18.3405C13.9445 18.8215 13.7056 19.2625 13.333 19.5718C12.9605 19.881 12.4829 20.0346 12 20.0005C11.517 20.0346 11.0395 19.881 10.6669 19.5718C10.2943 19.2625 10.0554 18.8215 9.99995 18.3405V18.0005H14V18.3405ZM5.50995 16.0005L6.68995 14.8205C6.87712 14.6344 7.02561 14.4132 7.12687 14.1694C7.22814 13.9257 7.28016 13.6644 7.27995 13.4005V8.73047C7.2805 8.05587 7.42533 7.3892 7.70475 6.77518C7.98416 6.16117 8.39167 5.61403 8.89995 5.17047C9.40137 4.71616 9.99553 4.37622 10.6413 4.17421C11.2871 3.97219 11.969 3.91291 12.64 4.00047C13.7964 4.18825 14.8462 4.78749 15.5958 5.68785C16.3455 6.58822 16.7447 7.72911 16.72 8.90047V13.4005C16.7184 13.6637 16.7689 13.9246 16.8684 14.1683C16.9679 14.412 17.1146 14.6336 17.3 14.8205L18.49 16.0005H5.50995Z" fill="#1A1A1A"/>
</svg>
