<svg width="32" height="32" viewBox="0 0 32 32" fill="none" xmlns="http://www.w3.org/2000/svg">
<rect width="32" height="32" rx="16" fill="#FE8B26"/>
<path d="M13.1204 13.1204V12.1204C12.5681 12.1204 12.1204 12.5681 12.1204 13.1204H13.1204ZM13.216 13.1204H14.216C14.216 12.5681 13.7683 12.1204 13.216 12.1204V13.1204ZM18.8804 13.1204V12.1204C18.3281 12.1204 17.8804 12.5681 17.8804 13.1204H18.8804ZM18.9654 13.1204H19.9654C19.9654 12.5681 19.5177 12.1204 18.9654 12.1204V13.1204ZM13.216 13.1973V14.1973C13.7683 14.1973 14.216 13.7495 14.216 13.1973H13.216ZM13.1204 13.1973H12.1204C12.1204 13.7495 12.5681 14.1973 13.1204 14.1973V13.1973ZM18.9654 13.1973V14.1973C19.5177 14.1973 19.9654 13.7495 19.9654 13.1973H18.9654ZM18.8804 13.1973H17.8804C17.8804 13.7495 18.3281 14.1973 18.8804 14.1973V13.1973ZM16.0003 18.4042V17.4042V18.4042ZM18.4781 20.8113C18.7688 21.2809 19.3851 21.426 19.8547 21.1353C20.3243 20.8446 20.4693 20.2283 20.1786 19.7587L18.4781 20.8113ZM11.822 19.7587C11.5313 20.2283 11.6763 20.8446 12.1459 21.1353C12.6155 21.426 13.2319 21.2809 13.5225 20.8113L11.822 19.7587ZM25.6004 16.0004H24.6004C24.6004 20.75 20.75 24.6004 16.0004 24.6004V25.6004V26.6004C21.8546 26.6004 26.6004 21.8546 26.6004 16.0004H25.6004ZM16.0004 25.6004V24.6004C11.2507 24.6004 7.40039 20.75 7.40039 16.0004H6.40039H5.40039C5.40039 21.8546 10.1462 26.6004 16.0004 26.6004V25.6004ZM6.40039 16.0004H7.40039C7.40039 11.2507 11.2507 7.40039 16.0004 7.40039V6.40039V5.40039C10.1462 5.40039 5.40039 10.1462 5.40039 16.0004H6.40039ZM16.0004 6.40039V7.40039C20.75 7.40039 24.6004 11.2507 24.6004 16.0004H25.6004H26.6004C26.6004 10.1462 21.8546 5.40039 16.0004 5.40039V6.40039ZM13.1204 13.1204V14.1204H13.216V13.1204V12.1204H13.1204V13.1204ZM18.8804 13.1204V14.1204H18.9654V13.1204V12.1204H18.8804V13.1204ZM13.216 13.1204H12.216V13.1973H13.216H14.216V13.1204H13.216ZM13.216 13.1973V12.1973H13.1204V13.1973V14.1973H13.216V13.1973ZM13.1204 13.1973H14.1204V13.1204H13.1204H12.1204V13.1973H13.1204ZM18.9654 13.1204H17.9654V13.1973H18.9654H19.9654V13.1204H18.9654ZM18.9654 13.1973V12.1973H18.8804V13.1973V14.1973H18.9654V13.1973ZM18.8804 13.1973H19.8804V13.1204H18.8804H17.8804V13.1973H18.8804ZM16.0003 18.4042V19.4042C17.0301 19.4042 17.948 19.9549 18.4781 20.8113L19.3284 20.285L20.1786 19.7587C19.3089 18.3536 17.7688 17.4042 16.0003 17.4042V18.4042ZM12.6723 20.285L13.5225 20.8113C14.0527 19.9549 14.9705 19.4042 16.0003 19.4042V18.4042V17.4042C14.2318 17.4042 12.6917 18.3536 11.822 19.7587L12.6723 20.285Z" fill="white"/>
</svg>
