<svg width="305" height="107" viewBox="0 0 305 107" fill="none" xmlns="http://www.w3.org/2000/svg">
<mask id="mask0_874_526" style="mask-type:luminance" maskUnits="userSpaceOnUse" x="0" y="0" width="305" height="107">
<path d="M304.55 0.00125122H0V106.29H304.55V0.00125122Z" fill="white"/>
</mask>
<g mask="url(#mask0_874_526)">
<path d="M18.3 68.8443C20.1423 68.2354 22.4144 68.2354 25.1164 68.8443C28.3507 69.575 30.9503 71.0565 32.895 73.2891C34.8396 75.5216 35.8017 78.2006 35.8017 81.3261C35.8017 82.4627 35.6584 83.6398 35.3718 84.8576L31.5644 101.236C31.196 102.779 30.4795 103.996 29.4151 104.91C28.3507 105.823 27.1225 106.269 25.7305 106.269C25.2802 106.269 24.8094 106.229 24.3181 106.148C22.8852 105.823 21.7594 105.113 20.9611 104.037C20.1627 102.961 19.7738 101.723 19.7738 100.282C19.7738 99.714 19.8352 99.1254 19.9581 98.5166L23.397 83.6601C23.5198 83.1325 23.5812 82.6454 23.5812 82.1988C23.5812 80.9811 23.1513 80.0069 22.3325 79.2763C21.4933 78.5456 20.4493 78.1803 19.2211 78.1803C17.1742 78.1803 15.8641 79.3778 15.2909 81.7726L11.7906 96.6899C11.4631 98.1918 10.7671 99.4096 9.70268 100.343C8.63825 101.277 7.3896 101.744 5.95671 101.744C5.50638 101.744 5.03557 101.683 4.54429 101.561C3.15235 101.236 2.04698 100.546 1.22819 99.4907C0.409396 98.4354 0 97.1973 0 95.7766C0 95.2084 0.0614094 94.6198 0.184228 94.0109L8.72013 57.4787C9.08859 55.9363 9.80503 54.6982 10.8695 53.8052C11.9339 52.8919 13.1621 52.4251 14.554 52.4251C15.0044 52.4251 15.4752 52.4657 15.9664 52.5469C17.3993 52.8716 18.5252 53.582 19.303 54.6576C20.1013 55.7333 20.4903 56.9916 20.4903 58.4123C20.4903 58.9806 20.4289 59.5692 20.306 60.1781L18.2795 68.824L18.3 68.8443Z" fill="#666666"/>
<path d="M52.259 104.889C47.1416 105.133 42.8429 103.509 39.363 100.018C36.006 96.6491 34.1842 92.4479 33.8976 87.4146C33.652 82.4625 35.0439 78.0989 38.0734 74.3239C41.2258 70.3865 45.2993 68.2758 50.2939 67.9917C55.3295 67.7481 59.6077 69.4328 63.1285 73.0455C66.5265 76.4551 68.3687 80.6358 68.6553 85.588C68.901 90.6619 67.5499 95.0255 64.6023 98.6787C61.4909 102.535 57.3765 104.605 52.259 104.889ZM50.908 79.0731C49.2295 79.1543 47.9194 79.9257 47.0187 81.4073C46.0976 82.8889 45.6882 84.6952 45.8315 86.8059C45.9543 88.8355 46.5479 90.52 47.6124 91.8798C48.6768 93.2396 50.0278 93.8889 51.6654 93.7874C53.3439 93.7062 54.654 92.935 55.5751 91.4737C56.4963 90.0124 56.9057 88.2467 56.7624 86.1766C56.6191 84.1064 56.0459 82.3813 55.0224 81.0012C53.9785 79.6211 52.607 78.9718 50.9285 79.053L50.908 79.0731Z" fill="#666666"/>
<path d="M84.8474 104.89C79.8528 105.134 75.8407 104.038 72.8316 101.643C69.8226 99.2277 68.2259 95.8384 68.0212 91.4545L67.1615 75.6239C67.0796 73.7973 67.5504 72.2345 68.6148 70.9559C69.6588 69.6773 71.0507 69.0075 72.8316 68.9263C74.5511 68.8451 76.0044 69.3931 77.1917 70.5297C78.3789 71.6865 79.0135 73.1884 79.0954 75.015L79.8937 90.6021C79.9756 91.901 80.4464 92.8955 81.2856 93.5856C82.1249 94.2756 83.1279 94.6003 84.3152 94.5597C85.4615 94.4786 86.4236 94.0523 87.2014 93.2811C87.9793 92.5099 88.3273 91.4748 88.2454 90.1759L87.4471 74.5888C87.3242 72.7622 87.795 71.1994 88.839 69.9411C89.883 68.6625 91.2749 67.9927 93.0353 67.9115C94.7957 67.8304 96.2695 68.3581 97.4363 69.4946C98.6031 70.6312 99.2377 72.133 99.3195 74.0002L100.179 89.77C100.425 94.1944 99.1967 97.7665 96.4742 100.445C93.7518 103.145 89.9034 104.626 84.9088 104.931L84.8474 104.89Z" fill="#666666"/>
<path d="M117.415 104.461C116.146 104.745 114.713 104.887 113.116 104.887C110.496 104.887 108.162 104.461 106.115 103.608C103.332 102.512 101.94 100.828 101.94 98.5548C101.94 97.3777 102.247 96.2817 102.861 95.2669C103.598 94.0492 104.642 93.2983 105.993 93.0141C106.525 92.8924 107.057 92.8315 107.589 92.8315C108.408 92.8315 109.513 93.0344 110.926 93.4403C112.338 93.8462 113.444 94.0492 114.201 94.0492C114.651 94.0492 115.102 93.9883 115.552 93.8665C116.862 93.5824 117.435 93.1156 117.272 92.4661C117.19 92.1414 115.757 91.7964 112.973 91.4311C109.493 91.0252 106.811 90.3757 104.928 89.4827C101.858 88.062 99.9745 85.8295 99.2786 82.7851C99.0329 81.8515 98.9101 80.9382 98.9101 80.0452C98.9101 76.392 100.486 73.4085 103.639 71.0948C106.504 68.9841 109.841 67.9287 113.648 67.9287C116.228 67.9287 118.438 68.3752 120.281 69.2682C122.737 70.4048 123.965 72.1096 123.965 74.3827C123.965 75.8034 123.494 77.0414 122.553 78.0968C121.611 79.1522 120.465 79.6799 119.114 79.6799C118.5 79.6799 117.476 79.5378 116.043 79.2537C114.61 78.9695 113.546 78.8275 112.85 78.8275C111.908 78.8275 111.212 78.9898 110.762 79.3146C110.476 79.5175 110.373 79.8017 110.455 80.167C110.537 80.5323 111.99 80.8773 114.815 81.2021C118.295 81.6486 120.977 82.298 122.86 83.1504C125.93 84.6117 127.813 86.8442 128.509 89.8277C128.714 90.6801 128.816 91.5325 128.816 92.385C128.816 95.2669 127.773 97.7836 125.705 99.9755C123.638 102.167 120.854 103.669 117.394 104.461H117.415Z" fill="#666666"/>
<path d="M156.512 86.7449L140.607 92.2248C141.671 93.2801 143.043 93.8078 144.721 93.8078C145.663 93.8078 146.645 93.6252 147.669 93.2598C149.061 92.7727 150.576 91.6362 152.213 89.8502C153.851 88.0641 155.099 87.0088 155.959 86.684C156.45 86.5217 156.942 86.4405 157.433 86.4405C158.866 86.4405 160.115 86.9479 161.199 87.9627C162.284 88.9775 162.837 90.1749 162.837 91.555C162.837 93.7875 161.445 96.1621 158.661 98.6788C156.164 100.992 153.421 102.657 150.432 103.672C148.303 104.402 146.175 104.767 144.046 104.767C140.238 104.767 136.84 103.631 133.811 101.358C130.802 99.0847 128.632 95.9998 127.281 92.103C126.544 90.0328 126.176 87.8815 126.176 85.649C126.176 81.9146 127.138 78.5658 129.062 75.6026C131.15 72.4365 133.995 70.2446 137.598 69.0268C139.399 68.418 141.221 68.1135 143.063 68.1135C146.83 68.1135 150.33 69.311 153.564 71.7059C156.635 73.9384 158.723 76.6783 159.828 79.9256C160.115 80.7374 160.258 81.5087 160.258 82.2393C160.258 84.3906 159.009 85.8925 156.512 86.7449ZM141.037 78.7687C138.662 79.5806 137.454 81.2854 137.413 83.8832L147.055 80.5953C145.949 79.1747 144.578 78.4643 142.94 78.4643C142.326 78.4643 141.692 78.5658 141.037 78.7687Z" fill="#666666"/>
<path d="M208.587 81.7509C208.26 78.8689 207.973 74.4648 207.727 68.5384C207.523 65.3723 208.792 63.3224 211.535 62.3888C212.313 62.1453 213.05 62.0235 213.746 62.0235C216.407 62.0235 218.187 63.3427 219.088 65.9812C219.334 66.6712 219.457 67.9498 219.457 69.817L219.211 92.2843C219.211 96.1405 217.676 98.576 214.605 99.5908C213.827 99.8749 213.05 100.017 212.272 100.017C210.143 100.017 208.301 98.9616 206.745 96.8509L200.235 88.2658C200.481 90.7013 200.665 94.253 200.788 98.921C200.952 102.452 199.437 104.766 196.244 105.862C195.466 106.146 194.708 106.288 193.971 106.288C191.802 106.288 189.837 105.152 188.076 102.879L174.075 85.465C172.806 83.8819 171.987 82.5221 171.618 81.3856C171.414 80.8985 171.311 80.3911 171.311 79.8634C171.311 78.4021 171.946 77.1235 173.236 76.0275C174.525 74.9315 175.917 74.3836 177.452 74.3836C179.377 74.3836 181.014 75.3172 182.365 77.1844L190.226 87.9614C189.939 85.1606 189.714 80.8782 189.55 75.1142C189.345 71.7045 190.676 69.5126 193.542 68.5384C194.279 68.2949 194.995 68.1731 195.691 68.1731C197.574 68.1731 199.273 69.2082 200.788 71.2783L208.587 81.7509Z" fill="#666666"/>
<path d="M228.566 65.3343C226.805 65.2735 225.311 64.5428 224.103 63.1627C222.896 61.7826 222.323 60.1995 222.384 58.4541C222.466 56.7899 223.223 55.3489 224.595 54.1514C225.966 52.954 227.522 52.3857 229.241 52.4872C230.961 52.5481 232.435 53.2381 233.683 54.5574C234.932 55.8969 235.485 57.3987 235.403 59.1036C235.3 60.8896 234.584 62.3915 233.253 63.6295C231.923 64.8675 230.367 65.4155 228.566 65.314V65.3343ZM226.662 101.684C224.902 101.623 223.489 100.953 222.466 99.6949C221.422 98.4163 220.951 96.8738 221.074 95.0472L222.282 71.6666C222.343 69.84 222.978 68.3584 224.144 67.2015C225.311 66.065 226.785 65.517 228.545 65.5779C230.306 65.6794 231.698 66.3694 232.742 67.6278C233.786 68.9064 234.236 70.4488 234.134 72.2755L232.987 95.656C232.885 97.4827 232.23 98.9642 231.063 100.121C229.896 101.258 228.423 101.785 226.662 101.684Z" fill="#666666"/>
<path d="M252.556 80.6978L251.635 80.4543L247.398 98.6595C247.029 100.202 246.313 101.44 245.248 102.333C244.184 103.246 242.935 103.713 241.503 103.713C241.052 103.713 240.581 103.672 240.09 103.591C238.698 103.267 237.593 102.556 236.774 101.481C235.955 100.405 235.546 99.1669 235.546 97.7462C235.546 97.1779 235.607 96.6096 235.73 96.0413L240.029 77.7752L239.599 77.7144C236.774 77.0649 235.362 75.4006 235.362 72.7216C235.362 72.2345 235.423 71.7474 235.546 71.2603C235.832 70.002 236.446 69.0075 237.429 68.2566C238.391 67.5056 239.476 67.12 240.704 67.12C241.155 67.12 241.584 67.1606 241.994 67.2418L242.424 67.3636L243.283 63.7104C243.652 62.2085 244.348 60.9907 245.412 60.0571C246.456 59.1235 247.684 58.6567 249.117 58.6567C249.568 58.6567 250.038 58.7176 250.53 58.8394C251.963 59.1641 253.088 59.8542 253.866 60.9096C254.665 61.9649 255.074 63.2233 255.074 64.6845C255.074 65.2528 255.013 65.8211 254.89 66.3894L254.03 70.0426L255.013 70.2253C258.042 70.9153 259.557 72.5999 259.557 75.2789C259.557 75.7254 259.516 76.2125 259.434 76.7402C258.779 79.5004 257.039 80.8805 254.214 80.8805C253.682 80.8805 253.129 80.8196 252.556 80.6978Z" fill="#666666"/>
<path d="M274.398 68.8443C276.24 68.2354 278.512 68.2354 281.214 68.8443C284.448 69.575 287.048 71.0565 288.993 73.2891C290.937 75.5216 291.899 78.2006 291.899 81.3261C291.899 82.4627 291.756 83.6398 291.47 84.8576L287.662 101.236C287.294 102.779 286.577 103.996 285.513 104.91C284.448 105.823 283.22 106.269 281.828 106.269C281.378 106.269 280.907 106.229 280.416 106.148C278.983 105.823 277.857 105.113 277.059 104.037C276.26 102.961 275.872 101.723 275.872 100.282C275.872 99.714 275.933 99.1254 276.056 98.5166L279.495 83.6601C279.618 83.1325 279.679 82.6454 279.679 82.1988C279.679 80.9811 279.249 80.0069 278.43 79.2763C277.591 78.5456 276.547 78.1803 275.319 78.1803C273.272 78.1803 271.962 79.3778 271.389 81.7726L267.888 96.6899C267.561 98.1918 266.865 99.4096 265.8 100.343C264.736 101.277 263.487 101.744 262.054 101.744C261.604 101.744 261.133 101.683 260.642 101.561C259.25 101.236 258.145 100.546 257.326 99.4907C256.507 98.4354 256.098 97.1973 256.098 95.7766C256.098 95.2084 256.159 94.6198 256.282 94.0109L264.818 57.4787C265.186 55.9363 265.903 54.6982 266.967 53.8052C268.032 52.8919 269.26 52.4251 270.652 52.4251C271.102 52.4251 271.573 52.4657 272.064 52.5469C273.497 52.8716 274.623 53.582 275.401 54.6576C276.199 55.7333 276.588 56.9916 276.588 58.4123C276.588 58.9806 276.527 59.5692 276.404 60.1781L274.377 68.824L274.398 68.8443Z" fill="#666666"/>
<path d="M161.077 49.9083L160.667 50.1924L166.194 58.0062L237.777 8.09922L238.187 7.81508L232.66 0.00125122L161.077 49.9083Z" fill="#666666"/>
<path d="M293.824 42.5801V12.989H284.203V35.7202L245.494 8.13832L239.865 15.8913L298.921 57.9845L304.55 50.2316L293.824 42.5801Z" fill="#666666"/>
</g>
</svg>
