<svg width="105" height="37" viewBox="0 0 105 37" fill="none" xmlns="http://www.w3.org/2000/svg">
<g clip-path="url(#clip0_1111_8844)">
<mask id="mask0_1111_8844" style="mask-type:luminance" maskUnits="userSpaceOnUse" x="0" y="0" width="105" height="37">
<path d="M104.845 0H0V36.5602H104.845V0Z" fill="white"/>
</mask>
<g mask="url(#mask0_1111_8844)">
<path d="M6.3 23.68C6.93423 23.4705 7.71644 23.4705 8.64664 23.68C9.76007 23.9313 10.655 24.4409 11.3245 25.2088C11.994 25.9768 12.3252 26.8983 12.3252 27.9734C12.3252 28.3643 12.2758 28.7692 12.1772 29.1881L10.8664 34.8219C10.7396 35.3524 10.493 35.7713 10.1265 36.0854C9.76007 36.3996 9.33725 36.5532 8.85805 36.5532C8.70302 36.5532 8.54094 36.5392 8.37181 36.5113C7.87852 36.3996 7.49094 36.1552 7.21611 35.7852C6.94127 35.4152 6.80738 34.9894 6.80738 34.4937C6.80738 34.2983 6.82852 34.0958 6.87081 33.8864L8.0547 28.7762C8.09698 28.5947 8.11812 28.4271 8.11812 28.2735C8.11812 27.8547 7.97013 27.5196 7.68825 27.2683C7.39933 27.0169 7.03993 26.8913 6.61711 26.8913C5.91242 26.8913 5.46141 27.3032 5.26409 28.1269L4.05906 33.2581C3.94631 33.7747 3.70671 34.1936 3.34027 34.5147C2.97383 34.8358 2.54396 34.9964 2.05067 34.9964C1.89564 34.9964 1.73356 34.9754 1.56443 34.9335C1.08523 34.8219 0.704698 34.5845 0.422819 34.2215C0.14094 33.8585 0 33.4326 0 32.9439C0 32.7485 0.0211409 32.546 0.0634228 32.3366L3.00201 19.7705C3.12886 19.24 3.3755 18.8141 3.74195 18.5069C4.10839 18.1928 4.53121 18.0322 5.0104 18.0322C5.16544 18.0322 5.32752 18.0462 5.49664 18.0741C5.98993 18.1858 6.37752 18.4302 6.6453 18.8002C6.92013 19.1702 7.05403 19.603 7.05403 20.0917C7.05403 20.2871 7.03289 20.4896 6.9906 20.699L6.29295 23.673L6.3 23.68Z" fill="#1A1A1A"/>
<path d="M17.9908 36.0783C16.2291 36.1621 14.7492 35.6036 13.5512 34.4028C12.3955 33.244 11.7683 31.7989 11.6697 30.0675C11.5851 28.3641 12.0643 26.8632 13.1073 25.5647C14.1925 24.2104 15.5948 23.4843 17.3143 23.3866C19.0479 23.3028 20.5207 23.8823 21.7328 25.125C22.9026 26.2978 23.5368 27.7358 23.6354 29.4392C23.72 31.1845 23.2549 32.6855 22.2401 33.9421C21.169 35.2685 19.7526 35.9806 17.9908 36.0783ZM17.5257 27.1983C16.9479 27.2262 16.4969 27.4916 16.1868 28.0012C15.8697 28.5108 15.7287 29.1321 15.7781 29.8582C15.8203 30.5563 16.0247 31.1357 16.3911 31.6035C16.7576 32.0712 17.2227 32.2945 17.7864 32.2596C18.3643 32.2317 18.8153 31.9664 19.1324 31.4638C19.4495 30.9611 19.5905 30.3538 19.5411 29.6417C19.4918 28.9296 19.2945 28.3362 18.9422 27.8615C18.5828 27.3868 18.1106 27.1635 17.5328 27.1914L17.5257 27.1983Z" fill="#1A1A1A"/>
<path d="M29.2099 36.0786C27.4904 36.1624 26.1092 35.7854 25.0733 34.9616C24.0374 34.1309 23.4877 32.965 23.4173 31.4571L23.1213 26.0118C23.0931 25.3835 23.2552 24.846 23.6216 24.4062C23.981 23.9664 24.4602 23.736 25.0733 23.7081C25.6653 23.6801 26.1656 23.8686 26.5743 24.2596C26.983 24.6575 27.2015 25.1741 27.2297 25.8024L27.5045 31.1639C27.5327 31.6107 27.6948 31.9528 27.9837 32.1901C28.2726 32.4275 28.6179 32.5392 29.0267 32.5252C29.4213 32.4973 29.7525 32.3507 30.0203 32.0854C30.2881 31.8201 30.4079 31.4641 30.3797 31.0173L30.1048 25.6558C30.0626 25.0275 30.2246 24.4899 30.584 24.0571C30.9434 23.6173 31.4226 23.3869 32.0287 23.359C32.6347 23.3311 33.1421 23.5126 33.5438 23.9035C33.9455 24.2945 34.1639 24.8111 34.1921 25.4533L34.4881 30.8777C34.5726 32.3996 34.1498 33.6282 33.2126 34.5498C32.2753 35.4782 30.9505 35.9879 29.231 36.0926L29.2099 36.0786Z" fill="#1A1A1A"/>
<path d="M40.4217 35.9318C39.9848 36.0295 39.4915 36.0784 38.9419 36.0784C38.0399 36.0784 37.2365 35.9318 36.5318 35.6386C35.5734 35.2616 35.0942 34.6821 35.0942 33.9003C35.0942 33.4953 35.1999 33.1184 35.4113 32.7693C35.665 32.3504 36.0244 32.0921 36.4895 31.9944C36.6727 31.9525 36.856 31.9316 37.0392 31.9316C37.3211 31.9316 37.7016 32.0014 38.1878 32.141C38.6741 32.2806 39.0546 32.3504 39.3154 32.3504C39.4704 32.3504 39.6254 32.3295 39.7805 32.2876C40.2315 32.1899 40.4288 32.0293 40.3724 31.8059C40.3442 31.6942 39.8509 31.5755 38.8925 31.4499C37.6946 31.3103 36.7714 31.0869 36.1231 30.7797C35.066 30.291 34.4177 29.5231 34.1781 28.4759C34.0936 28.1548 34.0513 27.8406 34.0513 27.5335C34.0513 26.2769 34.5939 25.2506 35.6791 24.4548C36.6657 23.7287 37.8144 23.3657 39.1251 23.3657C40.013 23.3657 40.7741 23.5193 41.4083 23.8265C42.254 24.2174 42.6768 24.8038 42.6768 25.5857C42.6768 26.0744 42.5147 26.5003 42.1905 26.8633C41.8664 27.2263 41.4717 27.4078 41.0066 27.4078C40.7952 27.4078 40.4429 27.3589 39.9496 27.2612C39.4563 27.1635 39.0899 27.1146 38.8503 27.1146C38.5261 27.1146 38.2865 27.1704 38.1315 27.2821C38.0328 27.3519 37.9976 27.4497 38.0258 27.5753C38.054 27.701 38.5543 27.8197 39.5268 27.9314C40.7248 28.085 41.6479 28.3084 42.2962 28.6016C43.3533 29.1042 44.0016 29.8721 44.2412 30.8984C44.3117 31.1916 44.3469 31.4848 44.3469 31.778C44.3469 32.7693 43.9875 33.635 43.2758 34.3889C42.564 35.1429 41.6056 35.6595 40.4147 35.9318H40.4217Z" fill="#1A1A1A"/>
<path d="M53.8811 29.8371L48.4056 31.7221C48.7721 32.0851 49.2442 32.2666 49.8221 32.2666C50.1462 32.2666 50.4845 32.2037 50.8368 32.0781C51.316 31.9105 51.8375 31.5196 52.4013 30.9053C52.965 30.2909 53.3949 29.9279 53.6909 29.8162C53.86 29.7604 54.0291 29.7324 54.1982 29.7324C54.6915 29.7324 55.1214 29.907 55.4949 30.256C55.8684 30.6051 56.0586 31.017 56.0586 31.4917C56.0586 32.2596 55.5794 33.0764 54.6211 33.9421C53.7613 34.7379 52.817 35.3104 51.7882 35.6594C51.0553 35.9107 50.3224 36.0364 49.5895 36.0364C48.2788 36.0364 47.109 35.6454 46.066 34.8636C45.0301 34.0817 44.2831 33.0205 43.818 31.6802C43.5643 30.9681 43.4375 30.2281 43.4375 29.4602C43.4375 28.1756 43.7687 27.0237 44.4311 26.0045C45.1499 24.9154 46.1294 24.1615 47.3697 23.7426C47.9899 23.5332 48.617 23.4285 49.2513 23.4285C50.5479 23.4285 51.7529 23.8404 52.8664 24.6641C53.9234 25.4321 54.6422 26.3745 55.0227 27.4915C55.1214 27.7707 55.1707 28.036 55.1707 28.2873C55.1707 29.0273 54.7409 29.5439 53.8811 29.8371ZM48.5536 27.0936C47.7362 27.3728 47.3204 27.9592 47.3063 28.8528L50.6254 27.7219C50.2449 27.2332 49.7727 26.9888 49.209 26.9888C48.9976 26.9888 48.7791 27.0238 48.5536 27.0936Z" fill="#1A1A1A"/>
<path d="M71.8087 28.1196C71.6959 27.1283 71.5973 25.6134 71.5127 23.5749C71.4423 22.4859 71.8792 21.7808 72.8235 21.4596C73.0912 21.3759 73.3449 21.334 73.5845 21.334C74.5006 21.334 75.1137 21.7878 75.4238 22.6953C75.5084 22.9327 75.5506 23.3725 75.5506 24.0147L75.4661 31.7429C75.4661 33.0693 74.9375 33.907 73.8805 34.2561C73.6127 34.3538 73.3449 34.4027 73.0771 34.4027C72.3443 34.4027 71.71 34.0396 71.1745 33.3136L68.9335 30.3606C69.018 31.1983 69.0814 32.42 69.1237 34.0257C69.1801 35.2404 68.6586 36.0362 67.5593 36.4132C67.2915 36.511 67.0308 36.5598 66.7771 36.5598C66.0301 36.5598 65.3536 36.1689 64.7475 35.387L59.9274 29.3972C59.4905 28.8527 59.2086 28.3849 59.0818 27.994C59.0113 27.8264 58.9761 27.6519 58.9761 27.4704C58.9761 26.9678 59.1945 26.5279 59.6385 26.151C60.0824 25.774 60.5616 25.5855 61.0902 25.5855C61.7526 25.5855 62.3163 25.9066 62.7814 26.5489L65.4875 30.2559C65.3888 29.2925 65.3113 27.8195 65.2549 25.8368C65.1845 24.664 65.6425 23.91 66.6291 23.5749C66.8828 23.4912 67.1294 23.4493 67.369 23.4493C68.0173 23.4493 68.6022 23.8053 69.1237 24.5174L71.8087 28.1196Z" fill="#1A1A1A"/>
<path d="M78.6864 22.4723C78.0803 22.4514 77.5659 22.2001 77.1501 21.7254C76.7343 21.2506 76.537 20.7061 76.5582 20.1057C76.5863 19.5333 76.8471 19.0376 77.3192 18.6257C77.7914 18.2139 78.327 18.0184 78.9189 18.0533C79.5108 18.0742 80.0182 18.3116 80.4481 18.7654C80.878 19.2261 81.0682 19.7427 81.04 20.3291C81.0048 20.9435 80.7582 21.4601 80.3001 21.8859C79.8421 22.3118 79.3065 22.5003 78.6864 22.4654V22.4723ZM78.031 34.9756C77.4249 34.9546 76.9387 34.7242 76.5863 34.2914C76.227 33.8516 76.0649 33.321 76.1072 32.6927L76.5229 24.6505C76.5441 24.0222 76.7625 23.5125 77.1642 23.1146C77.5659 22.7237 78.0733 22.5352 78.6793 22.5561C79.2853 22.591 79.7645 22.8284 80.1239 23.2612C80.4833 23.701 80.6384 24.2316 80.6031 24.8599L80.2085 32.9022C80.1733 33.5305 79.9478 34.0401 79.5461 34.438C79.1444 34.8289 78.637 35.0105 78.031 34.9756Z" fill="#1A1A1A"/>
<path d="M86.9458 27.7573L86.6287 27.6735L85.17 33.9356C85.0431 34.4662 84.7965 34.892 84.4301 35.1992C84.0636 35.5133 83.6337 35.6739 83.1405 35.6739C82.9854 35.6739 82.8233 35.6599 82.6542 35.632C82.175 35.5203 81.7945 35.276 81.5126 34.906C81.2307 34.536 81.0898 34.1101 81.0898 33.6214C81.0898 33.426 81.1109 33.2305 81.1532 33.035L82.6331 26.752L82.4851 26.7311C81.5126 26.5077 81.0264 25.9352 81.0264 25.0137C81.0264 24.8462 81.0475 24.6786 81.0898 24.5111C81.1884 24.0782 81.3999 23.7362 81.7381 23.4779C82.0693 23.2196 82.4428 23.0869 82.8656 23.0869C83.0207 23.0869 83.1686 23.1009 83.3096 23.1288L83.4576 23.1707L83.7535 21.9141C83.8804 21.3975 84.12 20.9786 84.4864 20.6575C84.8458 20.3363 85.2686 20.1758 85.7619 20.1758C85.917 20.1758 86.079 20.1967 86.2482 20.2386C86.7415 20.3503 87.129 20.5877 87.3968 20.9507C87.6717 21.3137 87.8126 21.7465 87.8126 22.2492C87.8126 22.4446 87.7915 22.6401 87.7492 22.8356L87.4532 24.0922L87.7915 24.155C88.8344 24.3924 89.3559 24.9718 89.3559 25.8933C89.3559 26.0469 89.3418 26.2145 89.3136 26.396C89.0881 27.3454 88.4891 27.8201 87.5166 27.8201C87.3334 27.8201 87.1431 27.7992 86.9458 27.7573Z" fill="#1A1A1A"/>
<path d="M94.4646 23.68C95.0988 23.4705 95.881 23.4705 96.8112 23.68C97.9246 23.9313 98.8196 24.4409 99.489 25.2088C100.159 25.9768 100.49 26.8983 100.49 27.9734C100.49 28.3643 100.44 28.7692 100.342 29.1881L99.031 34.8219C98.9041 35.3524 98.6575 35.7713 98.2911 36.0854C97.9246 36.3996 97.5018 36.5532 97.0226 36.5532C96.8676 36.5532 96.7055 36.5392 96.5364 36.5113C96.0431 36.3996 95.6555 36.1552 95.3807 35.7852C95.1058 35.4152 94.9719 34.9894 94.9719 34.4937C94.9719 34.2983 94.9931 34.0958 95.0354 33.8864L96.2192 28.7762C96.2615 28.5947 96.2827 28.4271 96.2827 28.2735C96.2827 27.8547 96.1347 27.5196 95.8528 27.2683C95.5639 27.0169 95.2045 26.8913 94.7817 26.8913C94.077 26.8913 93.626 27.3032 93.4286 28.1269L92.2236 33.2581C92.1109 33.7747 91.8713 34.1936 91.5048 34.5147C91.1384 34.8358 90.7085 34.9964 90.2152 34.9964C90.0602 34.9964 89.8981 34.9754 89.729 34.9335C89.2498 34.8219 88.8692 34.5845 88.5874 34.2215C88.3055 33.8585 88.1646 33.4326 88.1646 32.9439C88.1646 32.7485 88.1857 32.546 88.228 32.3366L91.1666 19.7705C91.2934 19.24 91.5401 18.8141 91.9065 18.5069C92.2729 18.1928 92.6958 18.0322 93.175 18.0322C93.33 18.0322 93.4921 18.0462 93.6612 18.0741C94.1545 18.1858 94.5421 18.4302 94.8098 18.8002C95.0847 19.1702 95.2186 19.603 95.2186 20.0917C95.2186 20.2871 95.1974 20.4896 95.1552 20.699L94.4575 23.673L94.4646 23.68Z" fill="#1A1A1A"/>
<path d="M55.4525 17.1666L55.3115 17.2643L57.2142 19.9521L81.8575 2.78547L81.9984 2.68774L80.0958 0L55.4525 17.1666Z" fill="#1A1A1A"/>
<path d="M101.152 14.6463V4.46781H97.8404V12.2867L84.5146 2.79932L82.5767 5.46611L102.907 19.945L104.845 17.2782L101.152 14.6463Z" fill="#1A1A1A"/>
</g>
</g>
<defs>
<clipPath id="clip0_1111_8844">
<rect width="105" height="37" fill="white"/>
</clipPath>
</defs>
</svg>
