<svg width="182" height="170" viewBox="0 0 182 170" fill="none" xmlns="http://www.w3.org/2000/svg">
<path d="M45.5571 93.9294C46.9573 93.4646 48.6843 93.4646 50.738 93.9294C53.1963 94.4871 55.1722 95.6181 56.6502 97.3224C58.1283 99.0266 58.8595 101.072 58.8595 103.458C58.8595 104.325 58.7506 105.224 58.5328 106.154L55.6389 118.657C55.3589 119.834 54.8143 120.764 54.0053 121.461C53.1963 122.158 52.2627 122.499 51.2048 122.499C50.8625 122.499 50.5047 122.468 50.1312 122.406C49.0422 122.158 48.1865 121.631 47.5797 120.795C46.9729 119.958 46.6773 119.028 46.6773 117.944C46.6773 117.51 46.724 117.061 46.8173 116.596L49.4311 105.255C49.5245 104.852 49.5711 104.48 49.5711 104.139C49.5711 103.21 49.2444 102.466 48.6221 101.908C47.9842 101.351 47.1907 101.072 46.2572 101.072C44.7014 101.072 43.7056 101.986 43.27 103.814L40.6095 115.202C40.3606 116.348 39.8316 117.278 39.0226 117.99C38.2135 118.703 37.2645 119.059 36.1754 119.059C35.8331 119.059 35.4753 119.013 35.1018 118.92C34.0439 118.672 33.2037 118.145 32.5814 117.34C31.9591 116.534 31.6479 115.589 31.6479 114.504C31.6479 114.071 31.6946 113.621 31.7879 113.156L38.2758 85.2686C38.5558 84.0912 39.1004 83.1461 39.9094 82.4489C40.7184 81.7517 41.6519 81.4108 42.7099 81.4108C43.0522 81.4108 43.41 81.4418 43.7834 81.5038C44.8725 81.7517 45.7282 82.2939 46.3194 83.1151C46.9262 83.9362 47.2218 84.8968 47.2218 85.9813C47.2218 86.4151 47.1752 86.8644 47.0818 87.3292L45.5415 93.9294H45.5571Z" fill="#666666"/>
<path d="M73.2665 118.778C69.3769 118.963 66.1097 117.724 63.4648 115.059C60.9132 112.487 59.5285 109.28 59.3107 105.438C59.124 101.658 60.1819 98.3265 62.4846 95.4447C64.8806 92.439 67.9767 90.8277 71.7729 90.6108C75.6003 90.4249 78.852 91.7108 81.528 94.4686C84.1107 97.0715 85.511 100.263 85.7288 104.043C85.9155 107.917 84.8887 111.248 82.6483 114.037C80.2834 116.98 77.1561 118.561 73.2665 118.778ZM72.2397 99.0701C70.9639 99.1321 69.9682 99.7208 69.2836 100.852C68.5835 101.983 68.2723 103.362 68.3812 104.973C68.4746 106.522 68.9258 107.808 69.7348 108.846C70.5438 109.884 71.5707 110.38 72.8154 110.318C74.0911 110.256 75.0869 109.668 75.787 108.552C76.4871 107.436 76.7983 106.089 76.6894 104.508C76.596 102.928 76.1448 101.611 75.3669 100.557C74.5734 99.5039 73.531 99.0082 72.2553 99.0701H72.2397Z" fill="#666666"/>
<path d="M99.6225 121.446C95.8263 121.632 92.7768 120.795 90.4897 118.952C88.2026 117.108 86.9891 114.521 86.8335 111.174L86.1801 99.0893C86.1178 97.6949 86.4757 96.5019 87.2847 95.5258C88.0782 94.5498 89.1362 94.0385 90.4897 93.9765C91.7966 93.9145 92.9013 94.3329 93.8037 95.2005C94.706 96.0836 95.1884 97.2301 95.2506 98.6245L95.8574 110.523C95.9196 111.515 96.2774 112.274 96.9153 112.801C97.5532 113.328 98.3156 113.575 99.218 113.544C100.089 113.482 100.82 113.157 101.412 112.568C102.003 111.98 102.267 111.19 102.205 110.198L101.598 98.2991C101.505 96.9047 101.863 95.7118 102.656 94.7512C103.45 93.7751 104.508 93.2638 105.846 93.2018C107.184 93.1399 108.304 93.5427 109.191 94.4103C110.078 95.2779 110.56 96.4244 110.622 97.8498L111.276 109.888C111.462 113.266 110.529 115.977 108.46 118.038C106.39 120.098 103.465 121.229 99.6692 121.462L99.6225 121.446Z" fill="#666666"/>
<path d="M127.207 113.45C126.274 113.759 125.2 113.961 123.987 114.085C122.011 114.271 120.206 114.116 118.604 113.604C116.41 112.969 115.243 111.792 115.072 110.057C114.994 109.158 115.134 108.306 115.539 107.485C116.005 106.509 116.737 105.858 117.748 105.548C118.137 105.424 118.541 105.331 118.946 105.3C119.568 105.238 120.424 105.316 121.529 105.533C122.633 105.734 123.473 105.811 124.065 105.765C124.407 105.734 124.749 105.656 125.076 105.533C126.041 105.223 126.445 104.82 126.274 104.34C126.196 104.092 125.076 103.937 122.944 103.859C120.284 103.797 118.199 103.503 116.721 102.945C114.294 102.078 112.707 100.528 111.96 98.2507C111.711 97.5535 111.556 96.8718 111.478 96.1901C111.213 93.4168 112.194 91.0308 114.403 89.0477C116.426 87.235 118.868 86.1969 121.746 85.9335C123.691 85.7476 125.403 85.9336 126.865 86.4758C128.81 87.1575 129.852 88.366 130.024 90.1012C130.132 91.1858 129.852 92.1618 129.23 93.0295C128.592 93.8971 127.768 94.3774 126.741 94.4703C126.274 94.5168 125.496 94.4703 124.391 94.3619C123.287 94.2534 122.478 94.2224 121.949 94.2689C121.233 94.3309 120.72 94.5168 120.408 94.7802C120.206 94.9506 120.144 95.183 120.237 95.4464C120.331 95.7098 121.451 95.8802 123.614 95.9267C126.274 96.0197 128.359 96.314 129.837 96.8253C132.264 97.7084 133.851 99.2732 134.598 101.504C134.816 102.139 134.956 102.775 135.018 103.425C135.22 105.61 134.629 107.609 133.213 109.421C131.813 111.234 129.821 112.566 127.239 113.434L127.207 113.45Z" fill="#666666"/>
<path d="M158.184 102.2L146.095 106.383C146.904 107.189 147.947 107.591 149.223 107.591C149.938 107.591 150.685 107.452 151.463 107.173C152.521 106.801 153.672 105.934 154.917 104.57C156.162 103.207 157.111 102.401 157.764 102.153C158.138 102.029 158.511 101.967 158.884 101.967C159.973 101.967 160.923 102.355 161.747 103.129C162.572 103.904 162.992 104.818 162.992 105.872C162.992 107.576 161.934 109.389 159.818 111.31C157.92 113.076 155.835 114.346 153.563 115.121C151.945 115.679 150.327 115.958 148.709 115.958C145.815 115.958 143.233 115.09 140.93 113.355C138.643 111.62 136.994 109.265 135.967 106.29C135.407 104.71 135.127 103.067 135.127 101.363C135.127 98.5123 135.858 95.9559 137.32 93.6939C138.907 91.277 141.07 89.6037 143.808 88.6741C145.177 88.2093 146.562 87.9769 147.962 87.9769C150.825 87.9769 153.486 88.891 155.944 90.7192C158.278 92.4235 159.865 94.5151 160.705 96.994C160.923 97.6137 161.031 98.2025 161.031 98.7602C161.031 100.403 160.082 101.549 158.184 102.2ZM146.422 96.1109C144.617 96.7306 143.699 98.032 143.668 100.015L150.996 97.5053C150.156 96.4207 149.114 95.8785 147.869 95.8785C147.402 95.8785 146.92 95.956 146.422 96.1109Z" fill="#666666"/>
<path d="M89.1983 149.442C88.9494 147.242 88.7316 143.88 88.5449 139.356C88.3893 136.939 89.3539 135.374 91.4387 134.661C92.03 134.475 92.5901 134.383 93.1191 134.383C95.1416 134.383 96.4952 135.39 97.1798 137.404C97.3665 137.93 97.4598 138.907 97.4598 140.332L97.2731 157.483C97.2731 160.427 96.1063 162.286 93.7725 163.06C93.1813 163.277 92.5901 163.386 91.9988 163.386C90.3808 163.386 88.9805 162.58 87.7981 160.969L82.8505 154.415C83.0372 156.274 83.1772 158.986 83.2706 162.549C83.3951 165.245 82.2437 167.011 79.8166 167.848C79.2254 168.065 78.6498 168.173 78.0896 168.173C76.4405 168.173 74.9469 167.306 73.6088 165.57L62.9669 152.277C62.0023 151.069 61.3799 150.031 61.0999 149.163C60.9443 148.791 60.8665 148.404 60.8665 148.001C60.8665 146.886 61.3488 145.909 62.329 145.073C63.3092 144.236 64.3672 143.818 65.534 143.818C66.9965 143.818 68.2412 144.531 69.268 145.956L75.2425 154.183C75.0246 152.045 74.8535 148.776 74.729 144.376C74.5735 141.773 75.5848 140.1 77.7629 139.356C78.323 139.17 78.8676 139.077 79.3966 139.077C80.8279 139.077 82.1193 139.867 83.2706 141.447L89.1983 149.442Z" fill="#666666"/>
<path d="M106.204 138.425C104.866 138.518 103.683 138.085 102.656 137.124C101.63 136.163 101.069 135.017 100.976 133.684C100.914 132.414 101.365 131.268 102.299 130.245C103.232 129.222 104.368 128.68 105.675 128.618C106.982 128.525 108.149 128.944 109.207 129.842C110.249 130.756 110.794 131.856 110.856 133.173C110.918 134.537 110.498 135.745 109.596 136.768C108.693 137.806 107.558 138.363 106.188 138.425H106.204ZM107.651 166.174C106.313 166.267 105.193 165.864 104.306 164.981C103.419 164.098 102.937 162.967 102.874 161.572L101.941 143.724C101.847 142.33 102.205 141.152 102.983 140.192C103.777 139.231 104.835 138.704 106.188 138.611C107.526 138.549 108.631 138.952 109.534 139.835C110.42 140.718 110.887 141.849 110.965 143.259L111.945 161.108C112.007 162.502 111.65 163.679 110.841 164.64C110.047 165.601 108.973 166.112 107.651 166.174Z" fill="#666666"/>
<path d="M128.53 148.232L127.83 148.046L124.609 161.944C124.329 163.121 123.785 164.066 122.976 164.763C122.167 165.46 121.218 165.801 120.128 165.801C119.786 165.801 119.428 165.77 119.055 165.708C117.997 165.46 117.157 164.918 116.534 164.097C115.912 163.276 115.601 162.331 115.601 161.246C115.601 160.812 115.648 160.379 115.741 159.945L119.008 146.001L118.682 145.954C116.534 145.459 115.461 144.188 115.461 142.143C115.461 141.771 115.508 141.399 115.601 141.028C115.819 140.067 116.286 139.308 117.032 138.735C117.764 138.161 118.588 137.867 119.522 137.867C119.864 137.867 120.191 137.898 120.502 137.96L120.829 138.053L121.482 135.264C121.762 134.118 122.291 133.188 123.1 132.475C123.894 131.763 124.827 131.406 125.916 131.406C126.258 131.406 126.616 131.453 126.99 131.546C128.079 131.794 128.934 132.32 129.526 133.126C130.132 133.932 130.444 134.892 130.444 136.008C130.444 136.442 130.397 136.875 130.304 137.309L129.65 140.098L130.397 140.237C132.7 140.764 133.851 142.05 133.851 144.095C133.851 144.436 133.82 144.808 133.758 145.211C133.26 147.318 131.937 148.371 129.79 148.371C129.386 148.371 128.966 148.325 128.53 148.232Z" fill="#666666"/>
<path d="M146.298 138.983C147.698 138.518 149.425 138.518 151.479 138.983C153.937 139.541 155.913 140.672 157.391 142.376C158.869 144.08 159.6 146.125 159.6 148.511C159.6 149.379 159.491 150.278 159.273 151.207L156.379 163.71C156.099 164.888 155.555 165.817 154.746 166.514C153.937 167.212 153.003 167.553 151.945 167.553C151.603 167.553 151.245 167.522 150.872 167.46C149.783 167.212 148.927 166.685 148.32 165.848C147.713 165.012 147.418 164.082 147.418 162.998C147.418 162.564 147.465 162.114 147.558 161.65L150.172 150.309C150.265 149.906 150.312 149.534 150.312 149.193C150.312 148.263 149.985 147.52 149.363 146.962C148.725 146.404 147.931 146.125 146.998 146.125C145.442 146.125 144.446 147.039 144.011 148.868L141.35 160.255C141.101 161.402 140.572 162.331 139.763 163.044C138.954 163.757 138.005 164.113 136.916 164.113C136.574 164.113 136.216 164.067 135.842 163.974C134.784 163.726 133.944 163.199 133.322 162.393C132.7 161.588 132.388 160.643 132.388 159.558C132.388 159.124 132.435 158.675 132.528 158.21L139.016 130.322C139.296 129.145 139.841 128.2 140.65 127.502C141.459 126.805 142.392 126.464 143.45 126.464C143.793 126.464 144.151 126.495 144.524 126.557C145.613 126.805 146.469 127.348 147.06 128.169C147.667 128.99 147.962 129.95 147.962 131.035C147.962 131.469 147.916 131.918 147.822 132.383L146.282 138.983H146.298Z" fill="#666666"/>
<path d="M24.011 82.2905V160.082H59.3596V168.829H15.2317V82.2905H24.011Z" fill="#666666" stroke="#666666"/>
<path d="M94.5294 1.3134L99.5807 8.46765L6.02778 73.9639L0.976451 66.8096L94.5294 1.3134Z" fill="#666666" stroke="#666666"/>
<path d="M104.503 12.2429L157.389 50.0993V16.8279H166.168V56.3757L180.382 66.5622L180.789 66.8542L180.495 67.2615L175.952 73.5515L175.661 73.9548L175.256 73.6658L99.3781 19.3464L98.9699 19.0535L99.2639 18.6462L103.807 12.3562L104.099 11.9529L104.503 12.2429Z" fill="#666666" stroke="#666666"/>
</svg>
